<mxfile host="app.diagrams.net" modified="2023-04-09T19:23:32.765Z" agent="Mozilla/5.0 (Windows NT 10.0; Win64; x64) AppleWebKit/537.36 (KHTML, like Gecko) Chrome/111.0.0.0 Safari/537.36" etag="eQHrPCjnJYHQ6d-tbPjP" version="21.1.5" type="device">
  <diagram id="R2lEEEUBdFMjLlhIrx00" name="Page-1">
    <mxGraphModel dx="2521" dy="1973" grid="1" gridSize="10" guides="1" tooltips="1" connect="1" arrows="1" fold="1" page="1" pageScale="1" pageWidth="850" pageHeight="1100" math="0" shadow="0" extFonts="Permanent Marker^https://fonts.googleapis.com/css?family=Permanent+Marker">
      <root>
        <mxCell id="0" />
        <mxCell id="1" parent="0" />
        <mxCell id="c0usCZb_SByC8nVf_Bn1-78" value="" style="ellipse;whiteSpace=wrap;html=1;" parent="1" vertex="1">
          <mxGeometry x="75" y="605" width="140" height="110" as="geometry" />
        </mxCell>
        <mxCell id="c0usCZb_SByC8nVf_Bn1-63" value="" style="rhombus;whiteSpace=wrap;html=1;" parent="1" vertex="1">
          <mxGeometry x="175" y="250" width="100" height="100" as="geometry" />
        </mxCell>
        <mxCell id="c0usCZb_SByC8nVf_Bn1-62" value="" style="rounded=0;whiteSpace=wrap;html=1;" parent="1" vertex="1">
          <mxGeometry x="157.5" y="462.5" width="135" height="75" as="geometry" />
        </mxCell>
        <mxCell id="c0usCZb_SByC8nVf_Bn1-1" value="&lt;u&gt;Felhasználónév&lt;/u&gt;" style="ellipse;whiteSpace=wrap;html=1;" parent="1" vertex="1">
          <mxGeometry x="-15" y="-130" width="120" height="80" as="geometry" />
        </mxCell>
        <mxCell id="c0usCZb_SByC8nVf_Bn1-2" value="Felhasználó" style="rounded=0;whiteSpace=wrap;html=1;" parent="1" vertex="1">
          <mxGeometry x="162.5" y="-12.5" width="120" height="70" as="geometry" />
        </mxCell>
        <mxCell id="c0usCZb_SByC8nVf_Bn1-3" value="Játék" style="rounded=0;whiteSpace=wrap;html=1;" parent="1" vertex="1">
          <mxGeometry x="165" y="470" width="120" height="60" as="geometry" />
        </mxCell>
        <mxCell id="c0usCZb_SByC8nVf_Bn1-6" value="Születési_dátum" style="ellipse;whiteSpace=wrap;html=1;" parent="1" vertex="1">
          <mxGeometry x="162.5" y="-180" width="120" height="80" as="geometry" />
        </mxCell>
        <mxCell id="c0usCZb_SByC8nVf_Bn1-7" value="Keresztnév" style="ellipse;whiteSpace=wrap;html=1;" parent="1" vertex="1">
          <mxGeometry x="412.5" y="-330" width="120" height="80" as="geometry" />
        </mxCell>
        <mxCell id="c0usCZb_SByC8nVf_Bn1-8" value="Családnév" style="ellipse;whiteSpace=wrap;html=1;" parent="1" vertex="1">
          <mxGeometry x="292.5" y="-340" width="120" height="80" as="geometry" />
        </mxCell>
        <mxCell id="c0usCZb_SByC8nVf_Bn1-9" value="Telefonszám" style="ellipse;whiteSpace=wrap;html=1;" parent="1" vertex="1">
          <mxGeometry x="75" y="-250" width="120" height="80" as="geometry" />
        </mxCell>
        <mxCell id="c0usCZb_SByC8nVf_Bn1-10" value="Lakhely" style="ellipse;whiteSpace=wrap;html=1;" parent="1" vertex="1">
          <mxGeometry x="435" y="-200" width="120" height="80" as="geometry" />
        </mxCell>
        <mxCell id="c0usCZb_SByC8nVf_Bn1-12" value="" style="ellipse;whiteSpace=wrap;html=1;" parent="1" vertex="1">
          <mxGeometry x="-60" y="-30" width="150" height="105" as="geometry" />
        </mxCell>
        <mxCell id="c0usCZb_SByC8nVf_Bn1-11" value="Foglalkozás" style="ellipse;whiteSpace=wrap;html=1;" parent="1" vertex="1">
          <mxGeometry x="-45" y="-17.5" width="120" height="80" as="geometry" />
        </mxCell>
        <mxCell id="c0usCZb_SByC8nVf_Bn1-13" value="Név" style="ellipse;whiteSpace=wrap;html=1;" parent="1" vertex="1">
          <mxGeometry x="292.5" y="-230" width="120" height="80" as="geometry" />
        </mxCell>
        <mxCell id="c0usCZb_SByC8nVf_Bn1-15" value="" style="endArrow=none;html=1;rounded=0;exitX=1;exitY=1;exitDx=0;exitDy=0;entryX=0;entryY=0;entryDx=0;entryDy=0;" parent="1" source="c0usCZb_SByC8nVf_Bn1-1" target="c0usCZb_SByC8nVf_Bn1-2" edge="1">
          <mxGeometry width="50" height="50" relative="1" as="geometry">
            <mxPoint x="245" y="210" as="sourcePoint" />
            <mxPoint x="295" y="160" as="targetPoint" />
          </mxGeometry>
        </mxCell>
        <mxCell id="c0usCZb_SByC8nVf_Bn1-16" value="" style="endArrow=none;html=1;rounded=0;exitX=1;exitY=0.5;exitDx=0;exitDy=0;entryX=0;entryY=0.25;entryDx=0;entryDy=0;" parent="1" source="c0usCZb_SByC8nVf_Bn1-12" target="c0usCZb_SByC8nVf_Bn1-2" edge="1">
          <mxGeometry width="50" height="50" relative="1" as="geometry">
            <mxPoint x="245" y="210" as="sourcePoint" />
            <mxPoint x="295" y="160" as="targetPoint" />
          </mxGeometry>
        </mxCell>
        <mxCell id="c0usCZb_SByC8nVf_Bn1-17" value="" style="endArrow=none;html=1;rounded=0;exitX=0.5;exitY=1;exitDx=0;exitDy=0;entryX=0.25;entryY=0;entryDx=0;entryDy=0;" parent="1" source="c0usCZb_SByC8nVf_Bn1-9" target="c0usCZb_SByC8nVf_Bn1-2" edge="1">
          <mxGeometry width="50" height="50" relative="1" as="geometry">
            <mxPoint x="245" y="210" as="sourcePoint" />
            <mxPoint x="295" y="160" as="targetPoint" />
          </mxGeometry>
        </mxCell>
        <mxCell id="c0usCZb_SByC8nVf_Bn1-18" value="" style="endArrow=none;html=1;rounded=0;exitX=0.5;exitY=0;exitDx=0;exitDy=0;entryX=0.5;entryY=1;entryDx=0;entryDy=0;" parent="1" source="c0usCZb_SByC8nVf_Bn1-2" target="c0usCZb_SByC8nVf_Bn1-6" edge="1">
          <mxGeometry width="50" height="50" relative="1" as="geometry">
            <mxPoint x="255" y="-20" as="sourcePoint" />
            <mxPoint x="305" y="-70" as="targetPoint" />
          </mxGeometry>
        </mxCell>
        <mxCell id="c0usCZb_SByC8nVf_Bn1-19" value="" style="endArrow=none;html=1;rounded=0;exitX=0.75;exitY=0;exitDx=0;exitDy=0;entryX=0;entryY=1;entryDx=0;entryDy=0;" parent="1" source="c0usCZb_SByC8nVf_Bn1-2" target="c0usCZb_SByC8nVf_Bn1-13" edge="1">
          <mxGeometry width="50" height="50" relative="1" as="geometry">
            <mxPoint x="345" y="90" as="sourcePoint" />
            <mxPoint x="395" y="40" as="targetPoint" />
          </mxGeometry>
        </mxCell>
        <mxCell id="c0usCZb_SByC8nVf_Bn1-20" value="" style="endArrow=none;html=1;rounded=0;exitX=0.5;exitY=1;exitDx=0;exitDy=0;entryX=0.5;entryY=0;entryDx=0;entryDy=0;" parent="1" source="c0usCZb_SByC8nVf_Bn1-8" target="c0usCZb_SByC8nVf_Bn1-13" edge="1">
          <mxGeometry width="50" height="50" relative="1" as="geometry">
            <mxPoint x="245" y="210" as="sourcePoint" />
            <mxPoint x="295" y="160" as="targetPoint" />
          </mxGeometry>
        </mxCell>
        <mxCell id="c0usCZb_SByC8nVf_Bn1-21" value="" style="endArrow=none;html=1;rounded=0;exitX=1;exitY=0;exitDx=0;exitDy=0;entryX=0;entryY=1;entryDx=0;entryDy=0;" parent="1" source="c0usCZb_SByC8nVf_Bn1-13" target="c0usCZb_SByC8nVf_Bn1-7" edge="1">
          <mxGeometry width="50" height="50" relative="1" as="geometry">
            <mxPoint x="245" y="210" as="sourcePoint" />
            <mxPoint x="295" y="160" as="targetPoint" />
          </mxGeometry>
        </mxCell>
        <mxCell id="c0usCZb_SByC8nVf_Bn1-22" value="" style="endArrow=none;html=1;rounded=0;exitX=0;exitY=1;exitDx=0;exitDy=0;entryX=1;entryY=0;entryDx=0;entryDy=0;" parent="1" source="c0usCZb_SByC8nVf_Bn1-10" target="c0usCZb_SByC8nVf_Bn1-2" edge="1">
          <mxGeometry width="50" height="50" relative="1" as="geometry">
            <mxPoint x="245" y="210" as="sourcePoint" />
            <mxPoint x="295" y="160" as="targetPoint" />
          </mxGeometry>
        </mxCell>
        <mxCell id="c0usCZb_SByC8nVf_Bn1-23" value="Üzenet" style="rounded=0;whiteSpace=wrap;html=1;" parent="1" vertex="1">
          <mxGeometry x="540" y="112.5" width="120" height="60" as="geometry" />
        </mxCell>
        <mxCell id="c0usCZb_SByC8nVf_Bn1-24" value="Keresés" style="rhombus;whiteSpace=wrap;html=1;" parent="1" vertex="1">
          <mxGeometry x="185" y="260" width="80" height="80" as="geometry" />
        </mxCell>
        <mxCell id="c0usCZb_SByC8nVf_Bn1-25" value="" style="endArrow=none;html=1;rounded=0;entryX=0.5;entryY=1;entryDx=0;entryDy=0;exitX=0.5;exitY=0;exitDx=0;exitDy=0;" parent="1" source="c0usCZb_SByC8nVf_Bn1-24" target="c0usCZb_SByC8nVf_Bn1-2" edge="1">
          <mxGeometry width="50" height="50" relative="1" as="geometry">
            <mxPoint x="270" y="340" as="sourcePoint" />
            <mxPoint x="410" y="310" as="targetPoint" />
            <Array as="points" />
          </mxGeometry>
        </mxCell>
        <mxCell id="c0usCZb_SByC8nVf_Bn1-26" value="" style="endArrow=none;html=1;rounded=0;exitX=0.5;exitY=0;exitDx=0;exitDy=0;entryX=0.5;entryY=1;entryDx=0;entryDy=0;" parent="1" source="c0usCZb_SByC8nVf_Bn1-3" target="c0usCZb_SByC8nVf_Bn1-24" edge="1">
          <mxGeometry width="50" height="50" relative="1" as="geometry">
            <mxPoint x="255" y="270" as="sourcePoint" />
            <mxPoint x="305" y="220" as="targetPoint" />
          </mxGeometry>
        </mxCell>
        <mxCell id="c0usCZb_SByC8nVf_Bn1-27" value="Játéknév" style="ellipse;whiteSpace=wrap;html=1;" parent="1" vertex="1">
          <mxGeometry x="-120" y="570" width="120" height="80" as="geometry" />
        </mxCell>
        <mxCell id="c0usCZb_SByC8nVf_Bn1-28" value="Kategória" style="ellipse;whiteSpace=wrap;html=1;" parent="1" vertex="1">
          <mxGeometry x="85" y="620" width="120" height="80" as="geometry" />
        </mxCell>
        <mxCell id="c0usCZb_SByC8nVf_Bn1-32" value="" style="rounded=0;whiteSpace=wrap;html=1;" parent="1" vertex="1">
          <mxGeometry x="-275" y="252.5" width="160" height="80" as="geometry" />
        </mxCell>
        <mxCell id="c0usCZb_SByC8nVf_Bn1-31" value="Gép" style="rounded=0;whiteSpace=wrap;html=1;" parent="1" vertex="1">
          <mxGeometry x="-255" y="262.5" width="120" height="60" as="geometry" />
        </mxCell>
        <mxCell id="c0usCZb_SByC8nVf_Bn1-33" value="CPU" style="ellipse;whiteSpace=wrap;html=1;" parent="1" vertex="1">
          <mxGeometry x="-455" y="102.5" width="120" height="80" as="geometry" />
        </mxCell>
        <mxCell id="c0usCZb_SByC8nVf_Bn1-34" value="GPU" style="ellipse;whiteSpace=wrap;html=1;" parent="1" vertex="1">
          <mxGeometry x="-530" y="252.5" width="120" height="80" as="geometry" />
        </mxCell>
        <mxCell id="c0usCZb_SByC8nVf_Bn1-35" value="RAM&lt;br&gt;" style="ellipse;whiteSpace=wrap;html=1;" parent="1" vertex="1">
          <mxGeometry x="-485" y="392.5" width="120" height="80" as="geometry" />
        </mxCell>
        <mxCell id="c0usCZb_SByC8nVf_Bn1-36" value="Tárhely" style="ellipse;whiteSpace=wrap;html=1;" parent="1" vertex="1">
          <mxGeometry x="-295" y="57.5" width="120" height="80" as="geometry" />
        </mxCell>
        <mxCell id="c0usCZb_SByC8nVf_Bn1-37" value="OS" style="ellipse;whiteSpace=wrap;html=1;" parent="1" vertex="1">
          <mxGeometry x="-325" y="432.5" width="120" height="80" as="geometry" />
        </mxCell>
        <mxCell id="c0usCZb_SByC8nVf_Bn1-38" value="" style="endArrow=none;html=1;rounded=0;exitX=0.5;exitY=1;exitDx=0;exitDy=0;entryX=0.5;entryY=0;entryDx=0;entryDy=0;" parent="1" target="c0usCZb_SByC8nVf_Bn1-32" edge="1">
          <mxGeometry width="50" height="50" relative="1" as="geometry">
            <mxPoint x="-245" y="137.5" as="sourcePoint" />
            <mxPoint x="255" y="202.5" as="targetPoint" />
          </mxGeometry>
        </mxCell>
        <mxCell id="c0usCZb_SByC8nVf_Bn1-39" value="" style="endArrow=none;html=1;rounded=0;exitX=1;exitY=1;exitDx=0;exitDy=0;entryX=0;entryY=0;entryDx=0;entryDy=0;" parent="1" source="c0usCZb_SByC8nVf_Bn1-33" target="c0usCZb_SByC8nVf_Bn1-32" edge="1">
          <mxGeometry width="50" height="50" relative="1" as="geometry">
            <mxPoint x="205" y="252.5" as="sourcePoint" />
            <mxPoint x="255" y="202.5" as="targetPoint" />
          </mxGeometry>
        </mxCell>
        <mxCell id="c0usCZb_SByC8nVf_Bn1-43" value="" style="endArrow=none;html=1;rounded=0;exitX=1;exitY=0.5;exitDx=0;exitDy=0;entryX=0;entryY=0.5;entryDx=0;entryDy=0;" parent="1" source="c0usCZb_SByC8nVf_Bn1-34" target="c0usCZb_SByC8nVf_Bn1-32" edge="1">
          <mxGeometry width="50" height="50" relative="1" as="geometry">
            <mxPoint x="-395" y="292.5" as="sourcePoint" />
            <mxPoint x="255" y="202.5" as="targetPoint" />
          </mxGeometry>
        </mxCell>
        <mxCell id="c0usCZb_SByC8nVf_Bn1-44" value="" style="endArrow=none;html=1;rounded=0;exitX=1;exitY=0;exitDx=0;exitDy=0;entryX=0;entryY=1;entryDx=0;entryDy=0;" parent="1" source="c0usCZb_SByC8nVf_Bn1-35" target="c0usCZb_SByC8nVf_Bn1-32" edge="1">
          <mxGeometry width="50" height="50" relative="1" as="geometry">
            <mxPoint x="205" y="252.5" as="sourcePoint" />
            <mxPoint x="255" y="202.5" as="targetPoint" />
          </mxGeometry>
        </mxCell>
        <mxCell id="c0usCZb_SByC8nVf_Bn1-45" value="" style="endArrow=none;html=1;rounded=0;exitX=0.595;exitY=0.014;exitDx=0;exitDy=0;exitPerimeter=0;entryX=0.25;entryY=1;entryDx=0;entryDy=0;" parent="1" source="c0usCZb_SByC8nVf_Bn1-37" target="c0usCZb_SByC8nVf_Bn1-32" edge="1">
          <mxGeometry width="50" height="50" relative="1" as="geometry">
            <mxPoint x="205" y="252.5" as="sourcePoint" />
            <mxPoint x="255" y="202.5" as="targetPoint" />
          </mxGeometry>
        </mxCell>
        <mxCell id="c0usCZb_SByC8nVf_Bn1-46" value="" style="endArrow=none;html=1;rounded=0;exitX=-0.013;exitY=0.638;exitDx=0;exitDy=0;exitPerimeter=0;" parent="1" source="c0usCZb_SByC8nVf_Bn1-2" target="c0usCZb_SByC8nVf_Bn1-47" edge="1">
          <mxGeometry width="50" height="50" relative="1" as="geometry">
            <mxPoint x="360" y="340" as="sourcePoint" />
            <mxPoint x="410" y="290" as="targetPoint" />
          </mxGeometry>
        </mxCell>
        <mxCell id="c0usCZb_SByC8nVf_Bn1-48" value="" style="endArrow=none;html=1;rounded=0;exitX=1;exitY=0;exitDx=0;exitDy=0;entryX=0;entryY=0.5;entryDx=0;entryDy=0;" parent="1" source="c0usCZb_SByC8nVf_Bn1-32" edge="1">
          <mxGeometry width="50" height="50" relative="1" as="geometry">
            <mxPoint x="205" y="252.5" as="sourcePoint" />
            <mxPoint x="-35" y="222.5" as="targetPoint" />
          </mxGeometry>
        </mxCell>
        <mxCell id="c0usCZb_SByC8nVf_Bn1-51" value="" style="endArrow=none;html=1;rounded=0;exitX=0.923;exitY=0.154;exitDx=0;exitDy=0;entryX=0;entryY=1;entryDx=0;entryDy=0;exitPerimeter=0;" parent="1" source="c0usCZb_SByC8nVf_Bn1-27" target="c0usCZb_SByC8nVf_Bn1-3" edge="1">
          <mxGeometry width="50" height="50" relative="1" as="geometry">
            <mxPoint x="10" y="569.9999999999995" as="sourcePoint" />
            <mxPoint x="305" y="320" as="targetPoint" />
          </mxGeometry>
        </mxCell>
        <mxCell id="c0usCZb_SByC8nVf_Bn1-52" value="" style="endArrow=none;html=1;rounded=0;exitX=0.5;exitY=0;exitDx=0;exitDy=0;entryX=0.5;entryY=1;entryDx=0;entryDy=0;" parent="1" source="c0usCZb_SByC8nVf_Bn1-28" target="c0usCZb_SByC8nVf_Bn1-3" edge="1">
          <mxGeometry width="50" height="50" relative="1" as="geometry">
            <mxPoint x="255" y="370" as="sourcePoint" />
            <mxPoint x="305" y="320" as="targetPoint" />
          </mxGeometry>
        </mxCell>
        <mxCell id="c0usCZb_SByC8nVf_Bn1-53" value="Játékszöveg" style="ellipse;whiteSpace=wrap;html=1;" parent="1" vertex="1">
          <mxGeometry x="265" y="620" width="120" height="80" as="geometry" />
        </mxCell>
        <mxCell id="c0usCZb_SByC8nVf_Bn1-54" value="" style="endArrow=none;html=1;rounded=0;exitX=0.5;exitY=0;exitDx=0;exitDy=0;entryX=1;entryY=1;entryDx=0;entryDy=0;" parent="1" source="c0usCZb_SByC8nVf_Bn1-53" target="c0usCZb_SByC8nVf_Bn1-3" edge="1">
          <mxGeometry width="50" height="50" relative="1" as="geometry">
            <mxPoint x="25" y="440" as="sourcePoint" />
            <mxPoint x="75" y="390" as="targetPoint" />
          </mxGeometry>
        </mxCell>
        <mxCell id="c0usCZb_SByC8nVf_Bn1-55" value="Játékcím" style="ellipse;whiteSpace=wrap;html=1;" parent="1" vertex="1">
          <mxGeometry x="435" y="590" width="120" height="80" as="geometry" />
        </mxCell>
        <mxCell id="c0usCZb_SByC8nVf_Bn1-56" value="" style="endArrow=none;html=1;rounded=0;entryX=1;entryY=0.5;entryDx=0;entryDy=0;" parent="1" source="c0usCZb_SByC8nVf_Bn1-55" target="c0usCZb_SByC8nVf_Bn1-3" edge="1">
          <mxGeometry width="50" height="50" relative="1" as="geometry">
            <mxPoint x="25" y="440" as="sourcePoint" />
            <mxPoint x="75" y="390" as="targetPoint" />
          </mxGeometry>
        </mxCell>
        <mxCell id="c0usCZb_SByC8nVf_Bn1-57" value="" style="endArrow=none;html=1;rounded=0;exitX=0.693;exitY=1.058;exitDx=0;exitDy=0;exitPerimeter=0;" parent="1" source="c0usCZb_SByC8nVf_Bn1-3" target="c0usCZb_SByC8nVf_Bn1-58" edge="1">
          <mxGeometry width="50" height="50" relative="1" as="geometry">
            <mxPoint x="25" y="440" as="sourcePoint" />
            <mxPoint x="75" y="390" as="targetPoint" />
          </mxGeometry>
        </mxCell>
        <mxCell id="c0usCZb_SByC8nVf_Bn1-58" value="JátékképId" style="ellipse;whiteSpace=wrap;html=1;" parent="1" vertex="1">
          <mxGeometry x="195" y="719.9999999999995" width="120" height="80" as="geometry" />
        </mxCell>
        <mxCell id="c0usCZb_SByC8nVf_Bn1-59" value="" style="rhombus;whiteSpace=wrap;html=1;" parent="1" vertex="1">
          <mxGeometry x="-35" y="172.5" width="100" height="100" as="geometry" />
        </mxCell>
        <mxCell id="c0usCZb_SByC8nVf_Bn1-47" value="Feltőlt" style="rhombus;whiteSpace=wrap;html=1;" parent="1" vertex="1">
          <mxGeometry x="-25" y="182.5" width="80" height="80" as="geometry" />
        </mxCell>
        <mxCell id="c0usCZb_SByC8nVf_Bn1-64" value="&lt;u&gt;ÜzenetId&lt;/u&gt;" style="ellipse;whiteSpace=wrap;html=1;" parent="1" vertex="1">
          <mxGeometry x="510" y="242.5" width="120" height="80" as="geometry" />
        </mxCell>
        <mxCell id="c0usCZb_SByC8nVf_Bn1-65" value="ÜzenetCím" style="ellipse;whiteSpace=wrap;html=1;" parent="1" vertex="1">
          <mxGeometry x="780" y="140" width="120" height="80" as="geometry" />
        </mxCell>
        <mxCell id="c0usCZb_SByC8nVf_Bn1-66" value="ÜzenetSzöveg" style="ellipse;whiteSpace=wrap;html=1;" parent="1" vertex="1">
          <mxGeometry x="740" y="-80" width="120" height="80" as="geometry" />
        </mxCell>
        <mxCell id="c0usCZb_SByC8nVf_Bn1-67" value="ÜzenetLike" style="ellipse;whiteSpace=wrap;html=1;" parent="1" vertex="1">
          <mxGeometry x="660" y="220" width="120" height="80" as="geometry" />
        </mxCell>
        <mxCell id="c0usCZb_SByC8nVf_Bn1-68" value="ÜzenetDátum" style="ellipse;whiteSpace=wrap;html=1;" parent="1" vertex="1">
          <mxGeometry x="760" y="32.5" width="120" height="80" as="geometry" />
        </mxCell>
        <mxCell id="c0usCZb_SByC8nVf_Bn1-69" value="" style="endArrow=none;html=1;rounded=0;exitX=0;exitY=0;exitDx=0;exitDy=0;" parent="1" source="c0usCZb_SByC8nVf_Bn1-23" target="c0usCZb_SByC8nVf_Bn1-70" edge="1">
          <mxGeometry width="50" height="50" relative="1" as="geometry">
            <mxPoint x="530" y="140" as="sourcePoint" />
            <mxPoint x="580" y="90" as="targetPoint" />
          </mxGeometry>
        </mxCell>
        <mxCell id="c0usCZb_SByC8nVf_Bn1-70" value="Üzenetírás" style="rhombus;whiteSpace=wrap;html=1;" parent="1" vertex="1">
          <mxGeometry x="385" y="50" width="80" height="80" as="geometry" />
        </mxCell>
        <mxCell id="c0usCZb_SByC8nVf_Bn1-71" value="" style="endArrow=none;html=1;rounded=0;exitX=1;exitY=0.5;exitDx=0;exitDy=0;entryX=0;entryY=0.5;entryDx=0;entryDy=0;" parent="1" source="c0usCZb_SByC8nVf_Bn1-2" target="c0usCZb_SByC8nVf_Bn1-70" edge="1">
          <mxGeometry width="50" height="50" relative="1" as="geometry">
            <mxPoint x="530" y="140" as="sourcePoint" />
            <mxPoint x="580" y="90" as="targetPoint" />
          </mxGeometry>
        </mxCell>
        <mxCell id="c0usCZb_SByC8nVf_Bn1-72" value="" style="endArrow=none;html=1;rounded=0;exitX=0.5;exitY=0;exitDx=0;exitDy=0;entryX=0.25;entryY=1;entryDx=0;entryDy=0;" parent="1" source="c0usCZb_SByC8nVf_Bn1-64" target="c0usCZb_SByC8nVf_Bn1-23" edge="1">
          <mxGeometry width="50" height="50" relative="1" as="geometry">
            <mxPoint x="530" y="140" as="sourcePoint" />
            <mxPoint x="580" y="90" as="targetPoint" />
          </mxGeometry>
        </mxCell>
        <mxCell id="c0usCZb_SByC8nVf_Bn1-73" value="" style="endArrow=none;html=1;rounded=0;exitX=0;exitY=0;exitDx=0;exitDy=0;entryX=1;entryY=1;entryDx=0;entryDy=0;" parent="1" source="c0usCZb_SByC8nVf_Bn1-67" target="c0usCZb_SByC8nVf_Bn1-23" edge="1">
          <mxGeometry width="50" height="50" relative="1" as="geometry">
            <mxPoint x="530" y="140" as="sourcePoint" />
            <mxPoint x="580" y="90" as="targetPoint" />
          </mxGeometry>
        </mxCell>
        <mxCell id="c0usCZb_SByC8nVf_Bn1-75" value="" style="endArrow=none;html=1;rounded=0;exitX=-0.028;exitY=0.382;exitDx=0;exitDy=0;exitPerimeter=0;entryX=1;entryY=0.5;entryDx=0;entryDy=0;" parent="1" source="c0usCZb_SByC8nVf_Bn1-65" target="c0usCZb_SByC8nVf_Bn1-23" edge="1">
          <mxGeometry width="50" height="50" relative="1" as="geometry">
            <mxPoint x="530" y="140" as="sourcePoint" />
            <mxPoint x="580" y="90" as="targetPoint" />
          </mxGeometry>
        </mxCell>
        <mxCell id="c0usCZb_SByC8nVf_Bn1-76" value="" style="endArrow=none;html=1;rounded=0;exitX=1;exitY=0;exitDx=0;exitDy=0;entryX=0;entryY=0.5;entryDx=0;entryDy=0;" parent="1" source="c0usCZb_SByC8nVf_Bn1-23" target="c0usCZb_SByC8nVf_Bn1-68" edge="1">
          <mxGeometry width="50" height="50" relative="1" as="geometry">
            <mxPoint x="530" y="140" as="sourcePoint" />
            <mxPoint x="580" y="90" as="targetPoint" />
          </mxGeometry>
        </mxCell>
        <mxCell id="c0usCZb_SByC8nVf_Bn1-77" value="" style="endArrow=none;html=1;rounded=0;exitX=0;exitY=1;exitDx=0;exitDy=0;entryX=0.75;entryY=0;entryDx=0;entryDy=0;" parent="1" source="c0usCZb_SByC8nVf_Bn1-66" target="c0usCZb_SByC8nVf_Bn1-23" edge="1">
          <mxGeometry width="50" height="50" relative="1" as="geometry">
            <mxPoint x="530" y="140" as="sourcePoint" />
            <mxPoint x="580" y="90" as="targetPoint" />
          </mxGeometry>
        </mxCell>
        <mxCell id="c0usCZb_SByC8nVf_Bn1-79" value="&lt;u&gt;Emailcím&lt;/u&gt;" style="ellipse;whiteSpace=wrap;html=1;" parent="1" vertex="1">
          <mxGeometry x="-70" y="-300" width="120" height="80" as="geometry" />
        </mxCell>
        <mxCell id="c0usCZb_SByC8nVf_Bn1-80" value="" style="endArrow=none;html=1;rounded=0;exitX=1;exitY=1;exitDx=0;exitDy=0;entryX=0.25;entryY=0;entryDx=0;entryDy=0;" parent="1" source="c0usCZb_SByC8nVf_Bn1-79" target="c0usCZb_SByC8nVf_Bn1-2" edge="1">
          <mxGeometry width="50" height="50" relative="1" as="geometry">
            <mxPoint x="310" y="250" as="sourcePoint" />
            <mxPoint x="360" y="200" as="targetPoint" />
          </mxGeometry>
        </mxCell>
        <mxCell id="sXYH3oiXfzdkoFnqW9zV-2" value="" style="ellipse;whiteSpace=wrap;html=1;" vertex="1" parent="1">
          <mxGeometry x="570" y="-110" width="150" height="90" as="geometry" />
        </mxCell>
        <mxCell id="sXYH3oiXfzdkoFnqW9zV-3" value="Válaszok" style="ellipse;whiteSpace=wrap;html=1;" vertex="1" parent="1">
          <mxGeometry x="585" y="-105" width="120" height="80" as="geometry" />
        </mxCell>
        <mxCell id="sXYH3oiXfzdkoFnqW9zV-4" value="" style="endArrow=none;html=1;rounded=0;exitX=1;exitY=0;exitDx=0;exitDy=0;entryX=0;entryY=1;entryDx=0;entryDy=0;" edge="1" parent="1" source="sXYH3oiXfzdkoFnqW9zV-2" target="sXYH3oiXfzdkoFnqW9zV-6">
          <mxGeometry width="50" height="50" relative="1" as="geometry">
            <mxPoint x="740" y="-115" as="sourcePoint" />
            <mxPoint x="749.4220074229584" y="-135" as="targetPoint" />
          </mxGeometry>
        </mxCell>
        <mxCell id="sXYH3oiXfzdkoFnqW9zV-6" value="VálaszokDátum" style="ellipse;whiteSpace=wrap;html=1;" vertex="1" parent="1">
          <mxGeometry x="760" y="-200" width="120" height="80" as="geometry" />
        </mxCell>
        <mxCell id="sXYH3oiXfzdkoFnqW9zV-7" value="" style="endArrow=none;html=1;rounded=0;exitX=0.5;exitY=0;exitDx=0;exitDy=0;entryX=0.342;entryY=0.973;entryDx=0;entryDy=0;entryPerimeter=0;" edge="1" parent="1" source="c0usCZb_SByC8nVf_Bn1-23" target="sXYH3oiXfzdkoFnqW9zV-2">
          <mxGeometry width="50" height="50" relative="1" as="geometry">
            <mxPoint x="590" y="70" as="sourcePoint" />
            <mxPoint x="640" y="20" as="targetPoint" />
          </mxGeometry>
        </mxCell>
        <mxCell id="sXYH3oiXfzdkoFnqW9zV-8" value="Gépnév" style="ellipse;whiteSpace=wrap;html=1;" vertex="1" parent="1">
          <mxGeometry x="-165" y="432.5" width="120" height="80" as="geometry" />
        </mxCell>
        <mxCell id="sXYH3oiXfzdkoFnqW9zV-9" value="" style="endArrow=none;html=1;rounded=0;exitX=0.5;exitY=0;exitDx=0;exitDy=0;entryX=0.75;entryY=1;entryDx=0;entryDy=0;" edge="1" parent="1" source="sXYH3oiXfzdkoFnqW9zV-8" target="c0usCZb_SByC8nVf_Bn1-32">
          <mxGeometry width="50" height="50" relative="1" as="geometry">
            <mxPoint x="170" y="330" as="sourcePoint" />
            <mxPoint x="220" y="280" as="targetPoint" />
          </mxGeometry>
        </mxCell>
      </root>
    </mxGraphModel>
  </diagram>
</mxfile>
